<svg version="1.1" id="Layer_1" xmlns="http://www.w3.org/2000/svg" xmlns:xlink="http://www.w3.org/1999/xlink" x="0px" y="0px"
	 width="100%" viewBox="0 0 500 500" enable-background="new 0 0 500 500" xml:space="preserve">

<path fill="#d71920" opacity="1.000000" stroke="none" 
	d="
M326.290833,487.330475 
	C314.321381,490.187958 302.747375,493.077423 291.057098,495.375793 
	C284.150452,496.733673 277.064514,497.814240 270.051056,497.863831 
	C254.951614,497.970520 239.752777,498.272858 224.766235,496.776581 
	C201.915588,494.495117 179.696060,488.792175 158.497681,479.752594 
	C142.637833,472.989441 127.352272,465.087646 113.241005,455.064758 
	C92.970848,440.667419 74.207466,424.586945 59.765034,404.188538 
	C50.320679,390.849365 40.895317,377.317719 33.266380,362.916138 
	C22.996529,343.529175 15.749836,322.716003 12.163495,300.973175 
	C10.001595,287.866272 9.028782,274.535004 8.060724,261.265228 
	C5.931334,232.076263 10.567184,203.642639 19.621471,176.029343 
	C28.400064,149.256882 41.129105,124.347351 59.132534,102.476768 
	C67.206749,92.668221 75.423088,82.835838 84.628242,74.127678 
	C105.404495,54.473160 129.047562,39.043606 155.437057,27.642599 
	C172.984756,20.061497 191.153320,14.951488 209.749542,11.224072 
	C230.178558,7.129292 250.994232,7.064878 271.629089,8.241838 
	C292.563171,9.435869 313.058075,13.969651 332.972443,20.892313 
	C358.898315,29.904692 382.675140,42.753197 404.243378,59.726875 
	C430.560303,80.437592 451.820984,105.394539 467.983582,134.758530 
	C481.696289,159.671631 490.315521,186.209015 495.132355,214.192795 
	C498.247253,232.289032 498.837799,250.493256 497.793488,268.626801 
	C496.261322,295.232208 490.156158,320.970978 480.136749,345.799591 
	C471.855804,366.320099 460.991760,385.332458 447.520325,402.736694 
	C427.270905,428.897614 402.775543,450.340393 373.853882,466.662964 
	C358.809204,475.153717 343.097229,481.961517 326.290833,487.330475 
M200.500000,134.997162 
	C187.001419,134.997192 173.502808,134.977081 160.004288,135.006058 
	C153.632828,135.019745 149.844421,138.502548 149.372757,145.596008 
	C148.999771,151.205124 154.312195,149.712921 157.318787,151.046814 
	C157.617249,151.179245 157.967712,151.190536 158.289871,151.274124 
	C171.295334,154.648163 173.995834,158.123627 173.996338,171.520279 
	C173.998352,224.681381 173.794983,277.843750 174.130585,331.002716 
	C174.221451,345.397095 169.843658,352.679138 156.384125,355.568573 
	C155.897690,355.673004 155.406921,355.809113 154.954544,356.011688 
	C152.537994,357.093964 148.317307,365.375916 149.122192,367.998962 
	C150.442886,372.302826 154.247391,370.947449 157.166199,370.951752 
	C205.661011,371.023407 254.156082,371.047302 302.650665,370.922241 
	C306.734344,370.911713 311.084595,370.420258 314.795410,368.896576 
	C316.996552,367.992767 319.486664,364.695312 319.607513,362.358307 
	C320.131744,352.219818 319.938782,342.036285 319.704163,331.876129 
	C319.673004,330.524963 318.199066,328.581024 316.901276,327.987610 
	C308.971405,324.361786 308.787506,324.552979 304.391388,331.832733 
	C302.587860,334.819275 300.711304,337.797211 298.545197,340.522522 
	C292.347839,348.319916 284.217163,353.309845 274.297089,353.806030 
	C262.000122,354.421143 249.638077,354.274170 237.325226,353.847473 
	C228.680588,353.547913 223.858673,349.369202 221.786163,340.888428 
	C220.574539,335.930389 219.930267,330.707916 219.917297,325.602173 
	C219.785721,273.774597 219.828171,221.946579 219.844650,170.118683 
	C219.847839,160.094254 224.484787,153.577393 234.284973,151.356689 
	C239.619125,150.147964 242.238815,147.369720 243.657196,142.440826 
	C245.380585,136.452011 244.474289,135.031113 237.996124,135.009232 
	C225.830872,134.968155 213.665390,134.997253 200.500000,134.997162 
M369.004150,264.976929 
	C369.962555,261.929779 370.178528,258.282593 372.046844,255.970764 
	C375.137695,252.146179 379.240051,249.119644 383.023621,245.882385 
	C384.899170,244.277664 387.013763,242.952377 389.796997,240.938690 
	C381.812775,240.679291 379.852173,238.755692 381.986542,232.255753 
	C384.505737,224.583984 388.185791,217.282501 391.540985,209.901611 
	C392.856537,207.007553 394.655792,204.333344 396.234772,201.559021 
	C391.940094,203.110947 388.573395,205.499344 384.912201,207.283295 
	C381.215576,209.084549 377.226868,210.286407 372.558777,212.057114 
	C372.558777,208.681641 372.558777,206.862259 372.558777,203.955856 
	C370.617584,206.542297 369.653015,208.643173 368.024292,209.841095 
	C363.558350,213.125839 359.109467,216.707687 354.097717,218.901550 
	C348.786285,221.226624 345.227966,218.581131 346.207794,212.848618 
	C347.620911,204.581253 350.378540,196.539017 352.658386,188.427689 
	C353.239471,186.360397 354.182373,184.394791 355.174316,181.824722 
	C343.497620,185.979538 338.325348,184.363922 334.109253,175.462967 
	C332.631073,172.342331 331.758392,168.912399 330.823853,165.563797 
	C330.057129,162.816452 329.608398,159.980377 328.912140,156.678101 
	C325.391754,161.858826 322.647644,166.625534 319.202789,170.816208 
	C311.849915,179.761078 305.318878,180.096313 296.788879,172.506256 
	C296.644592,172.377869 296.252777,172.527725 295.761322,172.563339 
	C295.761322,173.503357 295.789612,174.458130 295.756927,175.410797 
	C295.460785,184.044083 295.783966,192.758881 294.675568,201.287323 
	C293.535095,210.062866 288.603180,211.459656 282.061249,205.538742 
	C279.978485,203.653732 277.792877,201.626602 276.470428,199.216660 
	C274.436981,195.511002 273.108521,191.418518 271.290466,187.030472 
	C270.434570,189.356094 269.728271,191.275269 268.397400,194.891479 
	C261.936829,188.276535 256.294434,182.499329 250.274582,176.335632 
	C250.419159,177.478302 250.502045,178.091064 250.573593,178.705139 
	C251.725311,188.591629 253.451019,198.455170 253.849930,208.372040 
	C254.188690,216.793106 251.913986,218.138519 243.728180,216.330444 
	C244.601196,217.709976 245.312637,218.759644 245.949310,219.852829 
	C249.120087,225.297028 252.825638,230.514587 255.293640,236.262482 
	C258.631866,244.037109 254.806595,248.969162 246.374680,248.824738 
	C245.012421,248.801407 243.649414,248.821457 242.103043,248.821457 
	C255.837601,275.024536 279.132324,276.522583 304.532379,273.990326 
	C299.958191,284.657379 292.244812,290.990448 282.039368,293.631592 
	C277.097107,294.910614 274.562469,297.365417 273.170471,301.690430 
	C272.654510,303.293579 272.694397,305.075653 272.480835,306.776123 
	C274.213531,306.963257 276.080048,307.666931 277.658264,307.257965 
	C294.171722,302.978973 306.491425,293.919495 311.567261,276.834076 
	C311.734833,276.269897 312.130402,275.773438 312.038452,275.941254 
	C321.465363,278.911987 330.410339,282.000946 339.509064,284.538483 
	C355.444397,288.982666 368.268616,282.554596 379.795624,273.025787 
	C376.065552,270.457855 372.644409,268.102600 369.004150,264.976929 
z"/>
<path fill="#FFFEFE" opacity="1.000000" stroke="none" 
	d="
M201.000000,134.997162 
	C213.665390,134.997253 225.830872,134.968155 237.996124,135.009232 
	C244.474289,135.031113 245.380585,136.452011 243.657196,142.440826 
	C242.238815,147.369720 239.619125,150.147964 234.284973,151.356689 
	C224.484787,153.577393 219.847839,160.094254 219.844650,170.118683 
	C219.828171,221.946579 219.785721,273.774597 219.917297,325.602173 
	C219.930267,330.707916 220.574539,335.930389 221.786163,340.888428 
	C223.858673,349.369202 228.680588,353.547913 237.325226,353.847473 
	C249.638077,354.274170 262.000122,354.421143 274.297089,353.806030 
	C284.217163,353.309845 292.347839,348.319916 298.545197,340.522522 
	C300.711304,337.797211 302.587860,334.819275 304.391388,331.832733 
	C308.787506,324.552979 308.971405,324.361786 316.901276,327.987610 
	C318.199066,328.581024 319.673004,330.524963 319.704163,331.876129 
	C319.938782,342.036285 320.131744,352.219818 319.607513,362.358307 
	C319.486664,364.695312 316.996552,367.992767 314.795410,368.896576 
	C311.084595,370.420258 306.734344,370.911713 302.650665,370.922241 
	C254.156082,371.047302 205.661011,371.023407 157.166199,370.951752 
	C154.247391,370.947449 150.442886,372.302826 149.122192,367.998962 
	C148.317307,365.375916 152.537994,357.093964 154.954544,356.011688 
	C155.406921,355.809113 155.897690,355.673004 156.384125,355.568573 
	C169.843658,352.679138 174.221451,345.397095 174.130585,331.002716 
	C173.794983,277.843750 173.998352,224.681381 173.996338,171.520279 
	C173.995834,158.123627 171.295334,154.648163 158.289871,151.274124 
	C157.967712,151.190536 157.617249,151.179245 157.318787,151.046814 
	C154.312195,149.712921 148.999771,151.205124 149.372757,145.596008 
	C149.844421,138.502548 153.632828,135.019745 160.004288,135.006058 
	C173.502808,134.977081 187.001419,134.997192 201.000000,134.997162 
z"/>
<path fill="#FFFDFD" opacity="1.000000" stroke="none" 
	d="
M369.113708,265.362152 
	C372.644409,268.102600 376.065552,270.457855 379.795624,273.025787 
	C368.268616,282.554596 355.444397,288.982666 339.509064,284.538483 
	C330.410339,282.000946 321.465363,278.911987 312.038452,275.941254 
	C312.130402,275.773438 311.734833,276.269897 311.567261,276.834076 
	C306.491425,293.919495 294.171722,302.978973 277.658264,307.257965 
	C276.080048,307.666931 274.213531,306.963257 272.480835,306.776123 
	C272.694397,305.075653 272.654510,303.293579 273.170471,301.690430 
	C274.562469,297.365417 277.097107,294.910614 282.039368,293.631592 
	C292.244812,290.990448 299.958191,284.657379 304.532379,273.990326 
	C279.132324,276.522583 255.837601,275.024536 242.103043,248.821457 
	C243.649414,248.821457 245.012421,248.801407 246.374680,248.824738 
	C254.806595,248.969162 258.631866,244.037109 255.293640,236.262482 
	C252.825638,230.514587 249.120087,225.297028 245.949310,219.852829 
	C245.312637,218.759644 244.601196,217.709976 243.728180,216.330444 
	C251.913986,218.138519 254.188690,216.793106 253.849930,208.372040 
	C253.451019,198.455170 251.725311,188.591629 250.573593,178.705139 
	C250.502045,178.091064 250.419159,177.478302 250.274582,176.335632 
	C256.294434,182.499329 261.936829,188.276535 268.397400,194.891479 
	C269.728271,191.275269 270.434570,189.356094 271.290466,187.030472 
	C273.108521,191.418518 274.436981,195.511002 276.470428,199.216660 
	C277.792877,201.626602 279.978485,203.653732 282.061249,205.538742 
	C288.603180,211.459656 293.535095,210.062866 294.675568,201.287323 
	C295.783966,192.758881 295.460785,184.044083 295.756927,175.410797 
	C295.789612,174.458130 295.761322,173.503357 295.761322,172.563339 
	C296.252777,172.527725 296.644592,172.377869 296.788879,172.506256 
	C305.318878,180.096313 311.849915,179.761078 319.202789,170.816208 
	C322.647644,166.625534 325.391754,161.858826 328.912140,156.678101 
	C329.608398,159.980377 330.057129,162.816452 330.823853,165.563797 
	C331.758392,168.912399 332.631073,172.342331 334.109253,175.462967 
	C338.325348,184.363922 343.497620,185.979538 355.174316,181.824722 
	C354.182373,184.394791 353.239471,186.360397 352.658386,188.427689 
	C350.378540,196.539017 347.620911,204.581253 346.207794,212.848618 
	C345.227966,218.581131 348.786285,221.226624 354.097717,218.901550 
	C359.109467,216.707687 363.558350,213.125839 368.024292,209.841095 
	C369.653015,208.643173 370.617584,206.542297 372.558777,203.955856 
	C372.558777,206.862259 372.558777,208.681641 372.558777,212.057114 
	C377.226868,210.286407 381.215576,209.084549 384.912201,207.283295 
	C388.573395,205.499344 391.940094,203.110947 396.234772,201.559021 
	C394.655792,204.333344 392.856537,207.007553 391.540985,209.901611 
	C388.185791,217.282501 384.505737,224.583984 381.986542,232.255753 
	C379.852173,238.755692 381.812775,240.679291 389.796997,240.938690 
	C387.013763,242.952377 384.899170,244.277664 383.023621,245.882385 
	C379.240051,249.119644 375.137695,252.146179 372.046844,255.970764 
	C370.178528,258.282593 369.962555,261.929779 369.113708,265.362152 
z"/>
</svg>